<svg xmlns="http://www.w3.org/2000/svg" width="137.542" height="132.21" viewBox="0 0 137.542 132.21">
  <g id="centralized-structure" transform="translate(0 -0.911)">
    <g id="Group_67" data-name="Group 67" transform="translate(0 0.911)">
      <g id="Layer_1_5_">
        <g id="Group_66" data-name="Group 66">
          <path id="Path_163" data-name="Path 163" d="M38.378,33.218l-8.367-7.907a12.261,12.261,0,0,0,1.577-5.938,12.493,12.493,0,1,0-5.847,10.5l8.355,7.9A28.418,28.418,0,0,1,38.378,33.218Z" transform="translate(13.03 10.757)" fill="#fff"/>
          <path id="Path_164" data-name="Path 164" d="M33.187,43.9,44.3,25.189a12.271,12.271,0,1,0-5.393-3.149L27.829,40.7A27.764,27.764,0,0,1,33.187,43.9Z" transform="translate(53.611 -0.911)" fill="#fff"/>
          <path id="Path_165" data-name="Path 165" d="M60.973,20.952A12.4,12.4,0,0,0,49.36,29.073L33.915,27.548c0,.117.018.228.018.342a28.442,28.442,0,0,1-.623,5.879l15.44,1.525A12.39,12.39,0,1,0,60.973,20.952Z" transform="translate(64.167 37.697)" fill="#fff"/>
          <path id="Path_166" data-name="Path 166" d="M36.616,47.557,33.162,32.468a28.275,28.275,0,0,1-6.093,1.408l3.459,15.092a12.372,12.372,0,1,0,6.087-1.411Z" transform="translate(45.901 59.881)" fill="#fff"/>
          <path id="Path_167" data-name="Path 167" d="M42.015,25.37,22.788,31.811a12.387,12.387,0,1,0,2.031,6.769c0-.287-.061-.55-.085-.831L44.022,31.29A28.335,28.335,0,0,1,42.015,25.37Z" transform="translate(0 46.208)" fill="#fff"/>
          <circle id="Ellipse_31" data-name="Ellipse 31" cx="21.278" cy="21.278" r="21.278" transform="translate(48.459 44.309)" fill="#fff"/>
        </g>
      </g>
    </g>
  </g>
</svg>
