<svg xmlns="http://www.w3.org/2000/svg" width="116.02" height="113.897" viewBox="0 0 116.02 113.897">
  <g id="workflow" transform="translate(-2 -2)">
    <path id="Path_152" data-name="Path 152" d="M24,6H58.319v4.29H24Z" transform="translate(18.85 4.58)" fill="#fffefe"/>
    <path id="Path_153" data-name="Path 153" d="M24,10H58.319v4.29H24Z" transform="translate(18.85 9.16)" fill="#fffefe"/>
    <path id="Path_154" data-name="Path 154" d="M24,14H58.319v4.29H24Z" transform="translate(18.85 10.677)" fill="#fffefe"/>
    <path id="Path_155" data-name="Path 155" d="M27,27H57.029v4.29H27Z" transform="translate(21.734 22.244)" fill="#fffefe"/>
    <path id="Path_156" data-name="Path 156" d="M25,31H55.029v4.29H25Z" transform="translate(19.995 25.804)" fill="#fffefe"/>
    <path id="Path_157" data-name="Path 157" d="M23,35H53.029v4.29H23Z" transform="translate(18.256 29.363)" fill="#fffefe"/>
    <path id="Path_158" data-name="Path 158" d="M24,48H58.319v4.29H24Z" transform="translate(18.85 40.93)" fill="#fffefe"/>
    <path id="Path_159" data-name="Path 159" d="M24,52H58.319v4.29H24Z" transform="translate(18.85 42.447)" fill="#fffefe"/>
    <path id="Path_160" data-name="Path 160" d="M24,56H58.319v4.29H24Z" transform="translate(18.85 47.027)" fill="#fffefe"/>
    <path id="Path_161" data-name="Path 161" d="M24.237,100.711H36.806V114a1.916,1.916,0,0,0,1.934,1.9H81.28a1.916,1.916,0,0,0,1.934-1.9V100.711h4a15.189,15.189,0,1,0,0-3.8h-4V83.626a1.916,1.916,0,0,0-1.934-1.9H38.74a1.916,1.916,0,0,0-1.934,1.9V96.914H24.237a18.419,18.419,0,0,1-12.98-5.291A17.747,17.747,0,0,1,5.867,78.88a18.225,18.225,0,0,1,18.37-18.034H35.949L31.128,73.468a1.871,1.871,0,0,0,.221,1.748,1.947,1.947,0,0,0,1.59.817h42.54A1.934,1.934,0,0,0,77.29,74.8l5.33-13.954H95.782a22.3,22.3,0,0,0,15.715-6.4,21.48,21.48,0,0,0,6.522-15.427,22.062,22.062,0,0,0-22.237-21.83H83.214V3.9A1.916,1.916,0,0,0,81.28,2H38.74a1.916,1.916,0,0,0-1.934,1.9V34.271a1.916,1.916,0,0,0,1.934,1.9H81.28a1.916,1.916,0,0,0,1.934-1.9V20.983H95.782a18.225,18.225,0,0,1,18.37,18.034,17.747,17.747,0,0,1-5.389,12.743,18.419,18.419,0,0,1-12.98,5.291H84.071l4.821-12.622a1.871,1.871,0,0,0-.221-1.748,1.947,1.947,0,0,0-1.59-.817H44.54A1.934,1.934,0,0,0,42.73,43.1L37.4,57.05H24.237A22.062,22.062,0,0,0,2,78.88,21.48,21.48,0,0,0,8.522,94.308,22.3,22.3,0,0,0,24.237,100.711ZM102.55,87.423a11.392,11.392,0,1,1-11.6,11.39A11.51,11.51,0,0,1,102.55,87.423Zm-61.877-1.9H79.346V112.1H40.673ZM79.346,32.373H40.673V5.8H79.346ZM45.881,45.66H84.29L74.138,72.236H35.73Z" transform="translate(0 0)" fill="#fffefe"/>
    <path id="Path_162" data-name="Path 162" d="M56.1,62.534a2.138,2.138,0,0,0,1.517-.628l8.58-8.58-3.033-3.033L56.1,57.356l-2.773-2.773-3.033,3.033,4.29,4.29a2.138,2.138,0,0,0,1.517.628Z" transform="translate(42.615 40.493)" fill="#fffefe"/>
  </g>
</svg>
